# xmcd
#
# Track frame offsets:
#	150
#	8172
#	20374
#	30750
#	42429
#	54812
#	63921
#	73837
#	84715
#	103032
#	115916
#	128237
#	149996
#
# Disc length: 2152 seconds
#
# Revision: 0
# Processed by: cddbd v1.5.2PL0 Copyright (c) Steve Scherf et al.
# Submitted via: audiograbber 1.83.01
#
DISCID=af08660d
DTITLE=The .357 String Band - Ghost Town
DYEAR=2006
DGENRE=Streetgrass
TTITLE0=Pig In a Pen
TTITLE1=High Lonesome Blues
TTITLE2=Thank You
TTITLE3=Shotdown
TTITLE4=Wishin I'd Fuckin' Die
TTITLE5=Here Comes Hell
TTITLE6=Only Go Where Ive Gone
TTITLE7=Up Jump The Devil
TTITLE8=Stillest Hour
TTITLE9=Riot Act
TTITLE10=Evil On My Mind
TTITLE11=Raise The Moon
TTITLE12=Hard Times
EXTD=
EXTT0=
EXTT1=
EXTT2=
EXTT3=
EXTT4=
EXTT5=
EXTT6=
EXTT7=
EXTT8=
EXTT9=
EXTT10=
EXTT11=
EXTT12=
PLAYORDER=
